# xmcd CD database file
#
# Track frame offsets:
#	150
#	11616
#	22887
#	36657
#	53792
#	66349
#	76895
#	90782
#	101882
#	111548
#	125655
#	139241
#	155723
#	166241
#
# Disc length: 2379 seconds
#
# Revision: 0
# Processed by: cddbd v1.5.2PL0 Copyright (c) Steve Scherf et al.
# Submitted via: CDex 1.70beta2
#
DISCID=bd09490e
DTITLE=Joe Moore - On A Highway To Your Dreams
DYEAR=1900
DGENRE=Country
TTITLE0=Scania 164
TTITLE1=Truck Driving Man
TTITLE2=Highway To Your Dream
TTITLE3=Mama Knows The Highway
TTITLE4=Folks Out On The Road
TTITLE5=Harolds Super Service
TTITLE6=Pop-A-Top
TTITLE7=On The Road Again
TTITLE8=King Of The Road
TTITLE9=Desperado Of The Highway
TTITLE10=Movin' On
TTITLE11=Drivin' My Live Away
TTITLE12=Six Days On The Road
TTITLE13=Stone Cold Fingers
EXTD=
EXTT0=
EXTT1=
EXTT2=
EXTT3=
EXTT4=
EXTT5=
EXTT6=
EXTT7=
EXTT8=
EXTT9=
EXTT10=
EXTT11=
EXTT12=
EXTT13=
PLAYORDER=
